dataset
version=1
nRows=25
nColumns=39
inDegrees=no
endheader
time	sternoclavicular_r2	sternoclavicular_r3	unrotscap_r3	unrotscap_r2	acromioclavicular_r2	acromioclavicular_r3	acromioclavicular_r1	unrothum_r1	unrothum_r3	unrothum_r2	elv_angle	shoulder_elv	shoulder1_r2	shoulder_rot	elbow_flexion	pro_sup	deviation	flexion	cmc_abduction	cmc_flexion	mp_flexion	ip_flexion	mcp2_flexion	mcp2_abduction	pm2_flexion	md2_flexion	mcp3_flexion	mcp3_abduction	pm3_flexion	md3_flexion	mcp4_flexion	mcp4_abduction	pm4_flexion	md4_flexion	mcp5_flexion	mcp5_abduction	pm5_flexion	md5_flexion
3.865000	-0.013287	-0.362339	0.188088	0.103562	0.050452	0.257714	-0.091283	0.033744	0.150966	0.050257	0.089540	0.027437	0.146525	0.146525	2.171013	1.284165	0.000000	0.000000	0.000000	0.000000	0.000000	0.000000	0.000000	0.000000	0.000000	0.000000	0.000000	0.000000	0.000000	0.000000	0.000000	0.000000	0.000000	0.000000	0.000000	0.000000	0.000000	0.000000
3.870000	-0.013293	-0.362335	0.188071	0.103568	0.050472	0.257646	-0.091306	0.033726	0.150906	0.050290	0.089550	0.027437	0.146525	0.146525	2.171201	1.284193	0.000000	0.000000	0.000000	0.000000	0.000000	0.000000	0.000000	0.000000	0.000000	0.000000	0.000000	0.000000	0.000000	0.000000	0.000000	0.000000	0.000000	0.000000	0.000000	0.000000	0.000000	0.000000
3.875000	-0.013299	-0.362330	0.188051	0.103575	0.050495	0.257568	-0.091333	0.033702	0.150837	0.050329	0.089562	0.027437	0.146525	0.146525	2.171368	1.284222	0.000000	0.000000	0.000000	0.000000	0.000000	0.000000	0.000000	0.000000	0.000000	0.000000	0.000000	0.000000	0.000000	0.000000	0.000000	0.000000	0.000000	0.000000	0.000000	0.000000	0.000000	0.000000
3.880000	-0.013306	-0.362324	0.188031	0.103581	0.050520	0.257477	-0.091367	0.033672	0.150757	0.050374	0.089575	0.027437	0.146525	0.146525	2.171511	1.284253	0.000000	0.000000	0.000000	0.000000	0.000000	0.000000	0.000000	0.000000	0.000000	0.000000	0.000000	0.000000	0.000000	0.000000	0.000000	0.000000	0.000000	0.000000	0.000000	0.000000	0.000000	0.000000
3.885000	-0.013313	-0.362318	0.188008	0.103588	0.050548	0.257375	-0.091407	0.033636	0.150667	0.050424	0.089590	0.027437	0.146525	0.146525	2.171628	1.284284	0.000000	0.000000	0.000000	0.000000	0.000000	0.000000	0.000000	0.000000	0.000000	0.000000	0.000000	0.000000	0.000000	0.000000	0.000000	0.000000	0.000000	0.000000	0.000000	0.000000	0.000000	0.000000
3.890000	-0.013322	-0.362312	0.187984	0.103595	0.050580	0.257259	-0.091453	0.033595	0.150565	0.050482	0.089606	0.027437	0.146525	0.146525	2.171715	1.284316	0.000000	0.000000	0.000000	0.000000	0.000000	0.000000	0.000000	0.000000	0.000000	0.000000	0.000000	0.000000	0.000000	0.000000	0.000000	0.000000	0.000000	0.000000	0.000000	0.000000	0.000000	0.000000
3.895000	-0.013332	-0.362304	0.187959	0.103603	0.050614	0.257131	-0.091507	0.033547	0.150451	0.050546	0.089625	0.027437	0.146525	0.146525	2.171772	1.284350	0.000000	0.000000	0.000000	0.000000	0.000000	0.000000	0.000000	0.000000	0.000000	0.000000	0.000000	0.000000	0.000000	0.000000	0.000000	0.000000	0.000000	0.000000	0.000000	0.000000	0.000000	0.000000
3.900000	-0.013343	-0.362297	0.187933	0.103611	0.050652	0.256988	-0.091567	0.033493	0.150325	0.050617	0.089645	0.027437	0.146525	0.146525	2.171795	1.284386	0.000000	0.000000	0.000000	0.000000	0.000000	0.000000	0.000000	0.000000	0.000000	0.000000	0.000000	0.000000	0.000000	0.000000	0.000000	0.000000	0.000000	0.000000	0.000000	0.000000	0.000000	0.000000
3.905000	-0.013355	-0.362289	0.187905	0.103620	0.050693	0.256832	-0.091636	0.033432	0.150186	0.050696	0.089666	0.027437	0.146525	0.146525	2.171781	1.284423	0.000000	0.000000	0.000000	0.000000	0.000000	0.000000	0.000000	0.000000	0.000000	0.000000	0.000000	0.000000	0.000000	0.000000	0.000000	0.000000	0.000000	0.000000	0.000000	0.000000	0.000000	0.000000
3.910000	-0.013368	-0.362281	0.187876	0.103630	0.050738	0.256661	-0.091712	0.033364	0.150033	0.050782	0.089690	0.027437	0.146525	0.146525	2.171729	1.284462	0.000000	0.000000	0.000000	0.000000	0.000000	0.000000	0.000000	0.000000	0.000000	0.000000	0.000000	0.000000	0.000000	0.000000	0.000000	0.000000	0.000000	0.000000	0.000000	0.000000	0.000000	0.000000
3.915000	-0.013382	-0.362272	0.187846	0.103640	0.050787	0.256475	-0.091797	0.033289	0.149867	0.050876	0.089716	0.027437	0.146525	0.146525	2.171636	1.284503	0.000000	0.000000	0.000000	0.000000	0.000000	0.000000	0.000000	0.000000	0.000000	0.000000	0.000000	0.000000	0.000000	0.000000	0.000000	0.000000	0.000000	0.000000	0.000000	0.000000	0.000000	0.000000
3.920000	-0.013397	-0.362264	0.187814	0.103650	0.050839	0.256274	-0.091890	0.033207	0.149686	0.050978	0.089744	0.027437	0.146525	0.146525	2.171498	1.284546	0.000000	0.000000	0.000000	0.000000	0.000000	0.000000	0.000000	0.000000	0.000000	0.000000	0.000000	0.000000	0.000000	0.000000	0.000000	0.000000	0.000000	0.000000	0.000000	0.000000	0.000000	0.000000
3.925000	-0.013413	-0.362256	0.187782	0.103662	0.050896	0.256056	-0.091993	0.033118	0.149490	0.051089	0.089774	0.027437	0.146525	0.146525	2.171314	1.284591	0.000000	0.000000	0.000000	0.000000	0.000000	0.000000	0.000000	0.000000	0.000000	0.000000	0.000000	0.000000	0.000000	0.000000	0.000000	0.000000	0.000000	0.000000	0.000000	0.000000	0.000000	0.000000
3.930000	-0.013430	-0.362248	0.187749	0.103674	0.050956	0.255823	-0.092105	0.033022	0.149279	0.051208	0.089807	0.027437	0.146525	0.146525	2.171081	1.284638	0.000000	0.000000	0.000000	0.000000	0.000000	0.000000	0.000000	0.000000	0.000000	0.000000	0.000000	0.000000	0.000000	0.000000	0.000000	0.000000	0.000000	0.000000	0.000000	0.000000	0.000000	0.000000
3.935000	-0.013448	-0.362240	0.187715	0.103688	0.051022	0.255573	-0.092227	0.032918	0.149052	0.051336	0.089841	0.027437	0.146525	0.146525	2.170795	1.284688	0.000000	0.000000	0.000000	0.000000	0.000000	0.000000	0.000000	0.000000	0.000000	0.000000	0.000000	0.000000	0.000000	0.000000	0.000000	0.000000	0.000000	0.000000	0.000000	0.000000	0.000000	0.000000
3.940000	-0.013467	-0.362232	0.187680	0.103702	0.051091	0.255307	-0.092358	0.032806	0.148809	0.051473	0.089878	0.027437	0.146525	0.146525	2.170455	1.284741	0.000000	0.000000	0.000000	0.000000	0.000000	0.000000	0.000000	0.000000	0.000000	0.000000	0.000000	0.000000	0.000000	0.000000	0.000000	0.000000	0.000000	0.000000	0.000000	0.000000	0.000000	0.000000
3.945000	-0.013487	-0.362225	0.187645	0.103717	0.051166	0.255023	-0.092501	0.032687	0.148549	0.051619	0.089918	0.027437	0.146525	0.146525	2.170058	1.284796	0.000000	0.000000	0.000000	0.000000	0.000000	0.000000	0.000000	0.000000	0.000000	0.000000	0.000000	0.000000	0.000000	0.000000	0.000000	0.000000	0.000000	0.000000	0.000000	0.000000	0.000000	0.000000
3.950000	-0.013509	-0.362219	0.187609	0.103734	0.051245	0.254722	-0.092653	0.032560	0.148273	0.051775	0.089960	0.027437	0.146525	0.146525	2.169600	1.284854	0.000000	0.000000	0.000000	0.000000	0.000000	0.000000	0.000000	0.000000	0.000000	0.000000	0.000000	0.000000	0.000000	0.000000	0.000000	0.000000	0.000000	0.000000	0.000000	0.000000	0.000000	0.000000
3.955000	-0.013531	-0.362213	0.187573	0.103752	0.051329	0.254403	-0.092817	0.032426	0.147979	0.051941	0.090005	0.027437	0.146525	0.146525	2.169080	1.284914	0.000000	0.000000	0.000000	0.000000	0.000000	0.000000	0.000000	0.000000	0.000000	0.000000	0.000000	0.000000	0.000000	0.000000	0.000000	0.000000	0.000000	0.000000	0.000000	0.000000	0.000000	0.000000
3.960000	-0.013555	-0.362208	0.187536	0.103771	0.051418	0.254066	-0.092991	0.032283	0.147667	0.052116	0.090052	0.027437	0.146525	0.146525	2.168494	1.284978	0.000000	0.000000	0.000000	0.000000	0.000000	0.000000	0.000000	0.000000	0.000000	0.000000	0.000000	0.000000	0.000000	0.000000	0.000000	0.000000	0.000000	0.000000	0.000000	0.000000	0.000000	0.000000
3.965000	-0.013580	-0.362204	0.187499	0.103791	0.051512	0.253711	-0.093177	0.032132	0.147338	0.052302	0.090103	0.027437	0.146525	0.146525	2.167840	1.285045	0.000000	0.000000	0.000000	0.000000	0.000000	0.000000	0.000000	0.000000	0.000000	0.000000	0.000000	0.000000	0.000000	0.000000	0.000000	0.000000	0.000000	0.000000	0.000000	0.000000	0.000000	0.000000
3.970000	-0.013606	-0.362201	0.187461	0.103813	0.051611	0.253338	-0.093374	0.031973	0.146991	0.052498	0.090156	0.027437	0.146525	0.146525	2.167115	1.285116	0.000000	0.000000	0.000000	0.000000	0.000000	0.000000	0.000000	0.000000	0.000000	0.000000	0.000000	0.000000	0.000000	0.000000	0.000000	0.000000	0.000000	0.000000	0.000000	0.000000	0.000000	0.000000
3.975000	-0.013633	-0.362199	0.187423	0.103836	0.051716	0.252946	-0.093583	0.031807	0.146625	0.052704	0.090212	0.027437	0.146525	0.146525	2.166317	1.285190	0.000000	0.000000	0.000000	0.000000	0.000000	0.000000	0.000000	0.000000	0.000000	0.000000	0.000000	0.000000	0.000000	0.000000	0.000000	0.000000	0.000000	0.000000	0.000000	0.000000	0.000000	0.000000
3.980000	-0.013661	-0.362198	0.187385	0.103861	0.051826	0.252535	-0.093804	0.031632	0.146241	0.052921	0.090271	0.027437	0.146525	0.146525	2.165443	1.285267	0.000000	0.000000	0.000000	0.000000	0.000000	0.000000	0.000000	0.000000	0.000000	0.000000	0.000000	0.000000	0.000000	0.000000	0.000000	0.000000	0.000000	0.000000	0.000000	0.000000	0.000000	0.000000
3.985000	-0.013690	-0.362198	0.187347	0.103888	0.051942	0.252106	-0.094037	0.031449	0.145838	0.053149	0.090333	0.027437	0.146525	0.146525	2.164491	1.285348	0.000000	0.000000	0.000000	0.000000	0.000000	0.000000	0.000000	0.000000	0.000000	0.000000	0.000000	0.000000	0.000000	0.000000	0.000000	0.000000	0.000000	0.000000	0.000000	0.000000	0.000000	0.000000
